<svg id="visual" viewBox="0 0 900 600" width="900" height="600" xmlns="http://www.w3.org/2000/svg" xmlns:xlink="http://www.w3.org/1999/xlink" version="1.1"><rect x="0" y="0" width="900" height="600" fill="#5a3ff4"></rect><path d="M0 219L21.5 211.7C43 204.3 86 189.7 128.8 184.2C171.7 178.7 214.3 182.3 257.2 193.8C300 205.3 343 224.7 385.8 232.3C428.7 240 471.3 236 514.2 223.8C557 211.7 600 191.3 642.8 189C685.7 186.7 728.3 202.3 771.2 206.8C814 211.3 857 204.7 878.5 201.3L900 198L900 0L878.5 0C857 0 814 0 771.2 0C728.3 0 685.7 0 642.8 0C600 0 557 0 514.2 0C471.3 0 428.7 0 385.8 0C343 0 300 0 257.2 0C214.3 0 171.7 0 128.8 0C86 0 43 0 21.5 0L0 0Z" fill="#5a3ff4"></path><path d="M0 200L21.5 192.3C43 184.7 86 169.3 128.8 158.7C171.7 148 214.3 142 257.2 143.2C300 144.3 343 152.7 385.8 162.3C428.7 172 471.3 183 514.2 183.2C557 183.3 600 172.7 642.8 171.8C685.7 171 728.3 180 771.2 181.2C814 182.3 857 175.7 878.5 172.3L900 169L900 0L878.5 0C857 0 814 0 771.2 0C728.3 0 685.7 0 642.8 0C600 0 557 0 514.2 0C471.3 0 428.7 0 385.8 0C343 0 300 0 257.2 0C214.3 0 171.7 0 128.8 0C86 0 43 0 21.5 0L0 0Z" fill="#d800b7"></path><path d="M0 108L21.5 109.5C43 111 86 114 128.8 111.2C171.7 108.3 214.3 99.7 257.2 106.8C300 114 343 137 385.8 145.8C428.7 154.7 471.3 149.3 514.2 145C557 140.7 600 137.3 642.8 130.8C685.7 124.3 728.3 114.7 771.2 118.7C814 122.7 857 140.3 878.5 149.2L900 158L900 0L878.5 0C857 0 814 0 771.2 0C728.3 0 685.7 0 642.8 0C600 0 557 0 514.2 0C471.3 0 428.7 0 385.8 0C343 0 300 0 257.2 0C214.3 0 171.7 0 128.8 0C86 0 43 0 21.5 0L0 0Z" fill="#ff1e7a"></path><path d="M0 109L21.5 108C43 107 86 105 128.8 99.2C171.7 93.3 214.3 83.7 257.2 85.5C300 87.3 343 100.7 385.8 101.5C428.7 102.3 471.3 90.7 514.2 81C557 71.3 600 63.7 642.8 67.8C685.7 72 728.3 88 771.2 95.5C814 103 857 102 878.5 101.5L900 101L900 0L878.5 0C857 0 814 0 771.2 0C728.3 0 685.7 0 642.8 0C600 0 557 0 514.2 0C471.3 0 428.7 0 385.8 0C343 0 300 0 257.2 0C214.3 0 171.7 0 128.8 0C86 0 43 0 21.5 0L0 0Z" fill="#ff6f4d"></path><path d="M0 62L21.5 59.8C43 57.7 86 53.3 128.8 51.8C171.7 50.3 214.3 51.7 257.2 50.2C300 48.7 343 44.3 385.8 41.8C428.7 39.3 471.3 38.7 514.2 39.3C557 40 600 42 642.8 39.8C685.7 37.7 728.3 31.3 771.2 29C814 26.7 857 28.3 878.5 29.2L900 30L900 0L878.5 0C857 0 814 0 771.2 0C728.3 0 685.7 0 642.8 0C600 0 557 0 514.2 0C471.3 0 428.7 0 385.8 0C343 0 300 0 257.2 0C214.3 0 171.7 0 128.8 0C86 0 43 0 21.5 0L0 0Z" fill="#fcaf3c"></path></svg>